<svg width="31" height="31" viewBox="0 0 31 31" fill="none" xmlns="http://www.w3.org/2000/svg">
<path d="M3.875 13.0922C3.875 12.1665 4.30242 11.2925 5.03318 10.7242L13.6582 4.01584C14.7415 3.17325 16.2585 3.17325 17.3418 4.01584L25.9668 10.7242C26.6976 11.2925 27.125 12.1665 27.125 13.0922V25.8333C27.125 26.5185 26.8528 27.1755 26.3684 27.66C25.8839 28.1445 25.2268 28.4166 24.5417 28.4166H6.45833C5.77319 28.4166 5.11611 28.1445 4.63164 27.66C4.14717 27.1755 3.875 26.5185 3.875 25.8333V13.0922Z" stroke="#262626" stroke-width="2" stroke-linecap="round" stroke-linejoin="round"/>
<path d="M11.625 28.4167V18.5C11.625 16.8431 12.9681 15.5 14.625 15.5H16.375C18.0319 15.5 19.375 16.8431 19.375 18.5V28.4167" stroke="#262626" stroke-width="2" stroke-linecap="round" stroke-linejoin="round"/>
</svg>
