<svg width="31" height="31" viewBox="0 0 31 31" fill="none" xmlns="http://www.w3.org/2000/svg">
<g clip-path="url(#clip0_7_16)">
<path d="M15.5 19.375C17.6401 19.375 19.375 17.6401 19.375 15.5C19.375 13.3599 17.6401 11.625 15.5 11.625C13.3599 11.625 11.625 13.3599 11.625 15.5C11.625 17.6401 13.3599 19.375 15.5 19.375Z" stroke="#262626" stroke-width="1.5" stroke-linecap="round" stroke-linejoin="round"/>
<path d="M25.0584 19.375C24.8864 19.7646 24.8351 20.1968 24.9111 20.6158C24.9871 21.0348 25.1868 21.4214 25.4846 21.7259L25.5621 21.8034C25.8023 22.0433 25.9928 22.3282 26.1228 22.6418C26.2528 22.9554 26.3198 23.2916 26.3198 23.6311C26.3198 23.9706 26.2528 24.3067 26.1228 24.6203C25.9928 24.9339 25.8023 25.2188 25.5621 25.4588C25.3222 25.699 25.0373 25.8895 24.7237 26.0195C24.41 26.1495 24.0739 26.2164 23.7344 26.2164C23.3949 26.2164 23.0587 26.1495 22.7451 26.0195C22.4315 25.8895 22.1466 25.699 21.9067 25.4588L21.8292 25.3813C21.5248 25.0835 21.1381 24.8837 20.7191 24.8078C20.3001 24.7318 19.8679 24.7831 19.4784 24.955C19.0963 25.1188 18.7705 25.3906 18.541 25.7372C18.3115 26.0837 18.1883 26.4898 18.1867 26.9054V27.125C18.1867 27.8102 17.9145 28.4672 17.43 28.9517C16.9456 29.4362 16.2885 29.7084 15.6034 29.7084C14.9182 29.7084 14.2611 29.4362 13.7767 28.9517C13.2922 28.4672 13.02 27.8102 13.02 27.125V27.0088C13.01 26.5812 12.8716 26.1666 12.6228 25.8188C12.3741 25.4709 12.0264 25.206 11.625 25.0584C11.2354 24.8864 10.8033 24.8351 10.3843 24.9111C9.96525 24.9871 9.57861 25.1868 9.27419 25.4846L9.19669 25.5621C8.95676 25.8023 8.67185 25.9928 8.35824 26.1228C8.04463 26.2528 7.70847 26.3198 7.36898 26.3198C7.02949 26.3198 6.69333 26.2528 6.37972 26.1228C6.0661 25.9928 5.78119 25.8023 5.54127 25.5621C5.30108 25.3222 5.11054 25.0373 4.98053 24.7237C4.85053 24.41 4.78361 24.0739 4.78361 23.7344C4.78361 23.3949 4.85053 23.0587 4.98053 22.7451C5.11054 22.4315 5.30108 22.1466 5.54127 21.9067L5.61877 21.8292C5.91655 21.5248 6.1163 21.1381 6.19228 20.7191C6.26825 20.3001 6.21696 19.8679 6.04502 19.4784C5.88128 19.0963 5.60941 18.7705 5.26287 18.541C4.91633 18.3115 4.51024 18.1883 4.0946 18.1867H3.87502C3.18988 18.1867 2.5328 17.9145 2.04833 17.43C1.56386 16.9456 1.29169 16.2885 1.29169 15.6034C1.29169 14.9182 1.56386 14.2611 2.04833 13.7767C2.5328 13.2922 3.18988 13.02 3.87502 13.02H3.99127C4.4188 13.01 4.83344 12.8716 5.18128 12.6228C5.52912 12.3741 5.79407 12.0264 5.94169 11.625C6.11363 11.2354 6.16492 10.8033 6.08894 10.3843C6.01297 9.96525 5.81321 9.57861 5.51544 9.27419L5.43794 9.19669C5.19775 8.95676 5.0072 8.67185 4.8772 8.35824C4.74719 8.04463 4.68028 7.70847 4.68028 7.36898C4.68028 7.02949 4.74719 6.69333 4.8772 6.37972C5.0072 6.0661 5.19775 5.78119 5.43794 5.54127C5.67786 5.30108 5.96277 5.11054 6.27638 4.98053C6.58999 4.85053 6.92616 4.78361 7.26565 4.78361C7.60514 4.78361 7.9413 4.85053 8.25491 4.98053C8.56852 5.11054 8.85343 5.30108 9.09335 5.54127L9.17085 5.61877C9.47527 5.91655 9.86192 6.1163 10.2809 6.19228C10.6999 6.26825 11.1321 6.21696 11.5217 6.04502H11.625C12.0071 5.88128 12.3329 5.60941 12.5624 5.26287C12.7919 4.91633 12.915 4.51024 12.9167 4.0946V3.87502C12.9167 3.18988 13.1889 2.5328 13.6733 2.04833C14.1578 1.56386 14.8149 1.29169 15.5 1.29169C16.1852 1.29169 16.8422 1.56386 17.3267 2.04833C17.8112 2.5328 18.0834 3.18988 18.0834 3.87502V3.99127C18.085 4.40691 18.2082 4.813 18.4377 5.15954C18.6672 5.50608 18.993 5.77795 19.375 5.94169C19.7646 6.11363 20.1968 6.16492 20.6158 6.08894C21.0348 6.01297 21.4214 5.81321 21.7259 5.51544L21.8034 5.43794C22.0433 5.19775 22.3282 5.0072 22.6418 4.8772C22.9554 4.74719 23.2916 4.68028 23.6311 4.68028C23.9706 4.68028 24.3067 4.74719 24.6203 4.8772C24.9339 5.0072 25.2188 5.19775 25.4588 5.43794C25.699 5.67786 25.8895 5.96277 26.0195 6.27638C26.1495 6.58999 26.2164 6.92616 26.2164 7.26565C26.2164 7.60514 26.1495 7.9413 26.0195 8.25491C25.8895 8.56852 25.699 8.85343 25.4588 9.09335L25.3813 9.17085C25.0835 9.47527 24.8837 9.86192 24.8078 10.2809C24.7318 10.6999 24.7831 11.1321 24.955 11.5217V11.625C25.1188 12.0071 25.3906 12.3329 25.7372 12.5624C26.0837 12.7919 26.4898 12.915 26.9054 12.9167H27.125C27.8102 12.9167 28.4672 13.1889 28.9517 13.6733C29.4362 14.1578 29.7084 14.8149 29.7084 15.5C29.7084 16.1852 29.4362 16.8422 28.9517 17.3267C28.4672 17.8112 27.8102 18.0834 27.125 18.0834H27.0088C26.5931 18.085 26.187 18.2082 25.8405 18.4377C25.494 18.6672 25.2221 18.993 25.0584 19.375Z" stroke="#262626" stroke-width="1.5" stroke-linecap="round" stroke-linejoin="round"/>
</g>
<defs>
<clipPath id="clip0_7_16">
<rect width="31" height="31" fill="white"/>
</clipPath>
</defs>
</svg>
